<svg width="82" height="74" xmlns="http://www.w3.org/2000/svg">
  <!-- Left track (wider) -->
  <rect x="1" y="8" width="15" height="58" rx="5" ry="5" fill="white" opacity="0.75"/>
  <rect x="1" y="8" width="6" height="58" rx="4" ry="4" fill="white" opacity="0.2"/>

  <!-- Right track (wider) -->
  <rect x="66" y="8" width="15" height="58" rx="5" ry="5" fill="white" opacity="0.75"/>
  <rect x="71" y="8" width="9" height="58" rx="4" ry="4" fill="white" opacity="0.2"/>

  <!-- Main body (wider, squarer) -->
  <rect x="16" y="12" width="50" height="50" rx="5" ry="5" fill="white" opacity="1.0"/>
  <!-- Front armor plate -->
  <rect x="16" y="12" width="50" height="12" rx="5" ry="5" fill="white" opacity="0.35"/>
  <!-- Side armor ridge left -->
  <rect x="16" y="20" width="8" height="34" rx="2" ry="2" fill="white" opacity="0.25"/>
  <!-- Side armor ridge right -->
  <rect x="58" y="20" width="8" height="34" rx="2" ry="2" fill="white" opacity="0.25"/>
  <!-- Bottom shadow -->
  <rect x="17" y="50" width="48" height="11" rx="4" ry="4" fill="white" opacity="0.15"/>

  <!-- Turret (larger, heavier) -->
  <ellipse cx="41" cy="37" rx="14" ry="13" fill="white" opacity="0.9"/>
  <ellipse cx="38" cy="34" rx="6" ry="6" fill="white" opacity="0.35"/>
  <ellipse cx="45" cy="42" rx="6" ry="5" fill="white" opacity="0.15"/>
</svg>