<svg width="64" height="68" xmlns="http://www.w3.org/2000/svg">
  <!-- Left track (thin) -->
  <rect x="2" y="14" width="9" height="46" rx="3" ry="3" fill="white" opacity="0.75"/>
  <rect x="2" y="14" width="4" height="46" rx="2" ry="2" fill="white" opacity="0.2"/>

  <!-- Right track (thin) -->
  <rect x="53" y="14" width="9" height="46" rx="3" ry="3" fill="white" opacity="0.75"/>
  <rect x="56" y="14" width="6" height="46" rx="2" ry="2" fill="white" opacity="0.2"/>

  <!-- Pointed body (polygon approximated with a path) -->
  <polygon points="32,8 52,22 52,58 12,58 12,22" fill="white" opacity="1.0"/>
  <!-- Front wedge highlight -->
  <polygon points="32,8 52,22 12,22" fill="white" opacity="0.3"/>
  <!-- Rear shadow -->
  <rect x="13" y="48" width="38" height="10" rx="3" ry="3" fill="white" opacity="0.15"/>

  <!-- Turret (small, forward-offset) -->
  <ellipse cx="32" cy="32" rx="10" ry="10" fill="white" opacity="0.9"/>
  <ellipse cx="29" cy="29" rx="4" ry="4" fill="white" opacity="0.35"/>
  <ellipse cx="35" cy="36" rx="4" ry="3" fill="white" opacity="0.15"/>
</svg>